<!--?xml version="1.0" encoding="utf-8"?-->
<!-- Generator: Adobe Illustrator 18.1.1, SVG Export Plug-In . SVG Version: 6.00 Build 0)  -->

<svg version="1.1" id="_x31_0" xmlns="http://www.w3.org/2000/svg" xmlns:xlink="http://www.w3.org/1999/xlink" x="0px" y="0px" viewBox="0 0 512 512" style="enable-background:new 0 0 512 512;" xml:space="preserve">
<style type="text/css">
	.st0{fill:#374149;}
</style>
<g>
	<path class="st0" d="M462.515,481.054c0,0-31.914-1.934-32.75-21.172c-0.437-10.14-14.457-14.019-24.605-14.019l-4.336-0.313
		l-6.223-0.679c0-0.008-0.007-0.008-0.007-0.016c0.019-1.312-0.211-2.39-0.379-3.531c0-0.015-0.004-0.039-0.004-0.058
		c-1.953-12.977-14.957-15.386-18.086-23.07c-4.402-10.801-11.286-17.086-24.825-21.598l-44.754-5.992l-13.606-78.5l-0.722-4.211
		c0.098-0.008,45.664-5.32,57.562-36.39c8.602-22.5,85.172-16.707,96.898-17.703c20.754-1.758,25.414-23.18,8.266-33.488
		c-21.496-12.926-36.508-13.528-58.266-0.039c-18.778,11.637-28.867,1.93-44.25-0.551c0.352-23.945-0.461-47.41-0.961-59.058
		l13.398-22.886h-0.004c3.074-6.79,3.93-18.133,3.989-29.668c0.058-11.786-1.258-34.294-1.406-43.84
		c-0.45-28.141-14.023-48.719-26.258-47.031c-13.817,1.906-18.871,31.742-10.126,48.449c4.047,7.73,1.078,36.856,0.09,45.305
		c-1.379,11.809-5.367,28.293-9.133,36.246c-2.958,6.246-16.114,1.84-16.114,1.84c0.066-19.707,1.977-46.012,2.379-55.84
		c0.668-16.43-3.821-49.626-3.938-58.074c-0.301-21.734-11.301-35.817-25.153-35.141c-12.21,0.594-20.05,23.793-14.034,40.742
		c5.175,14.59,7.007,27.32,7.007,27.32l-4.816,80.153c0,0-14-0.574-15.985-0.574c-1.988,0-2.64-36.91-2.347-51.762
		c0.332-17-7.242-38.645-15.254-58.379c-8.058-19.851-21.414-28.953-34.414-25.953c-15.973,3.687-10.332,36,0.89,45.133
		c15.625,12.718,13.047,93.316,13.047,93.316l-7.622,1.09c0,0-20.617-42.227-26.629-54.93
		c-7.278-15.386-28.938-25.082-38.246-24.496c-8.773,0.555-14.886,25.454,4.762,35.734c19.206,10.051,22.523,36.574,20.339,49.938
		c-1.312,8.024-0.488,17.555,0.066,25.668c0.997,14.68,2.649,38.73,4.059,57.879c3.308,44.984,22.988,70.652,46.074,68.98
		c0.007,0,0.011,0,0.011,0c-1.32,20.219-7.492,46.653-12.942,66.883l-46.886-6.278c-0.461-0.07-0.922,0.066-1.383,0.055
		c-0.101-0.004-0.199-0.024-0.301-0.024c-0.086,0-0.171,0.043-0.258,0.047c-10.953,0.25-21.617,15.906-22.074,24.578
		c-0.465,8.878-15.558,18.926-13.839,26.492c2.312,10.183-20.325,20.027-30.766,20.297l-16.805,0.438
		c-14.242,0-22.188,12.797-24.336,19.34c-2.153,6.546-4.031,11.605-4.031,11.605c-14.317,0-28.207,13.055-27.723,27.242
		C15.023,508.222,13.148,512,25.562,512h426.551c16.422-0.129,31.27-2.058,37.394-6.016
		C512.613,491.05,478.148,481.27,462.515,481.054z" style="fill: rgb(0, 0, 0);"></path>
</g>
</svg>
